<mxfile host="Electron" modified="2024-09-15T01:26:22.891Z" agent="Mozilla/5.0 (Windows NT 10.0; Win64; x64) AppleWebKit/537.36 (KHTML, like Gecko) draw.io/22.1.11 Chrome/114.0.5735.289 Electron/25.9.8 Safari/537.36" etag="8sgWGXbvbizoSliuxP-r" version="22.1.11" type="device">
  <diagram name="第 1 页" id="wcW05nUL4vq5_6teQpkE">
    <mxGraphModel dx="794" dy="519" grid="1" gridSize="10" guides="1" tooltips="1" connect="1" arrows="1" fold="1" page="1" pageScale="1" pageWidth="827" pageHeight="1169" math="0" shadow="0">
      <root>
        <mxCell id="0" />
        <mxCell id="1" parent="0" />
        <mxCell id="Vx_XcLM9D_9K_0JDuTZA-30" value="" style="shape=ext;double=1;rounded=0;whiteSpace=wrap;html=1;fillColor=none;" parent="1" vertex="1">
          <mxGeometry x="20" y="100" width="180" height="420" as="geometry" />
        </mxCell>
        <mxCell id="Vx_XcLM9D_9K_0JDuTZA-32" value="" style="shape=ext;double=1;rounded=0;whiteSpace=wrap;html=1;fillColor=none;" parent="1" vertex="1">
          <mxGeometry x="240" y="100" width="480" height="420" as="geometry" />
        </mxCell>
        <mxCell id="Vx_XcLM9D_9K_0JDuTZA-24" value="register()" style="text;html=1;strokeColor=none;fillColor=none;align=center;verticalAlign=middle;whiteSpace=wrap;rounded=0;" parent="1" vertex="1">
          <mxGeometry x="600" y="283" width="60" height="30" as="geometry" />
        </mxCell>
        <mxCell id="Vx_XcLM9D_9K_0JDuTZA-2" style="edgeStyle=orthogonalEdgeStyle;rounded=0;orthogonalLoop=1;jettySize=auto;html=1;exitX=0.5;exitY=1;exitDx=0;exitDy=0;" parent="1" edge="1">
          <mxGeometry relative="1" as="geometry">
            <mxPoint x="120" y="200" as="targetPoint" />
            <mxPoint x="120" y="160" as="sourcePoint" />
          </mxGeometry>
        </mxCell>
        <mxCell id="Vx_XcLM9D_9K_0JDuTZA-3" value="&lt;font style=&quot;font-size: 18px;&quot; face=&quot;Times New Roman&quot;&gt;Begin&lt;/font&gt;" style="rounded=1;whiteSpace=wrap;html=1;fillColor=none;" parent="1" vertex="1">
          <mxGeometry x="80" y="120" width="80" height="40" as="geometry" />
        </mxCell>
        <mxCell id="Vx_XcLM9D_9K_0JDuTZA-5" style="edgeStyle=orthogonalEdgeStyle;rounded=0;orthogonalLoop=1;jettySize=auto;html=1;exitX=0.5;exitY=1;exitDx=0;exitDy=0;" parent="1" source="Vx_XcLM9D_9K_0JDuTZA-4" target="Vx_XcLM9D_9K_0JDuTZA-6" edge="1">
          <mxGeometry relative="1" as="geometry">
            <mxPoint x="120" y="270" as="targetPoint" />
          </mxGeometry>
        </mxCell>
        <mxCell id="Vx_XcLM9D_9K_0JDuTZA-4" value="&lt;b style=&quot;border-color: var(--border-color);&quot;&gt;&lt;font style=&quot;border-color: var(--border-color); font-size: 18px;&quot;&gt;··· ···&lt;/font&gt;&lt;/b&gt;" style="rounded=0;whiteSpace=wrap;html=1;fillColor=none;" parent="1" vertex="1">
          <mxGeometry x="80" y="200" width="80" height="40" as="geometry" />
        </mxCell>
        <mxCell id="Vx_XcLM9D_9K_0JDuTZA-7" style="edgeStyle=orthogonalEdgeStyle;rounded=0;orthogonalLoop=1;jettySize=auto;html=1;exitX=0.5;exitY=1;exitDx=0;exitDy=0;" parent="1" source="Vx_XcLM9D_9K_0JDuTZA-6" edge="1">
          <mxGeometry relative="1" as="geometry">
            <mxPoint x="120" y="360" as="targetPoint" />
          </mxGeometry>
        </mxCell>
        <mxCell id="Vx_XcLM9D_9K_0JDuTZA-6" value="&lt;b&gt;&lt;font style=&quot;font-size: 18px;&quot;&gt;if···else&lt;/font&gt;&lt;/b&gt;" style="rhombus;whiteSpace=wrap;html=1;fillColor=none;" parent="1" vertex="1">
          <mxGeometry x="70" y="260" width="100" height="70" as="geometry" />
        </mxCell>
        <mxCell id="Vx_XcLM9D_9K_0JDuTZA-10" style="edgeStyle=orthogonalEdgeStyle;rounded=0;orthogonalLoop=1;jettySize=auto;html=1;exitX=0.5;exitY=1;exitDx=0;exitDy=0;entryX=0.5;entryY=0;entryDx=0;entryDy=0;" parent="1" source="Vx_XcLM9D_9K_0JDuTZA-8" target="Vx_XcLM9D_9K_0JDuTZA-9" edge="1">
          <mxGeometry relative="1" as="geometry" />
        </mxCell>
        <mxCell id="Vx_XcLM9D_9K_0JDuTZA-8" value="&lt;b&gt;&lt;font style=&quot;font-size: 18px;&quot;&gt;··· ···&lt;/font&gt;&lt;/b&gt;" style="rounded=0;whiteSpace=wrap;html=1;fillColor=none;" parent="1" vertex="1">
          <mxGeometry x="80" y="360" width="80" height="40" as="geometry" />
        </mxCell>
        <mxCell id="Vx_XcLM9D_9K_0JDuTZA-9" value="&lt;font style=&quot;font-size: 18px;&quot; face=&quot;Times New Roman&quot;&gt;End&lt;/font&gt;" style="rounded=1;whiteSpace=wrap;html=1;fillColor=none;" parent="1" vertex="1">
          <mxGeometry x="80" y="440" width="80" height="40" as="geometry" />
        </mxCell>
        <mxCell id="Vx_XcLM9D_9K_0JDuTZA-11" value="" style="endArrow=classic;html=1;rounded=0;" parent="1" edge="1">
          <mxGeometry width="50" height="50" relative="1" as="geometry">
            <mxPoint x="120" y="340" as="sourcePoint" />
            <mxPoint x="120" y="170" as="targetPoint" />
            <Array as="points">
              <mxPoint x="40" y="340" />
              <mxPoint x="40" y="170" />
            </Array>
          </mxGeometry>
        </mxCell>
        <mxCell id="Vx_XcLM9D_9K_0JDuTZA-12" value="... ..." style="edgeLabel;html=1;align=center;verticalAlign=middle;resizable=0;points=[];labelBackgroundColor=none;fontStyle=1;fontSize=18;" parent="Vx_XcLM9D_9K_0JDuTZA-11" vertex="1" connectable="0">
          <mxGeometry x="0.0303" y="1" relative="1" as="geometry">
            <mxPoint as="offset" />
          </mxGeometry>
        </mxCell>
        <mxCell id="Vx_XcLM9D_9K_0JDuTZA-16" style="edgeStyle=orthogonalEdgeStyle;rounded=0;orthogonalLoop=1;jettySize=auto;html=1;exitX=0.5;exitY=1;exitDx=0;exitDy=0;" parent="1" source="Vx_XcLM9D_9K_0JDuTZA-15" edge="1">
          <mxGeometry relative="1" as="geometry">
            <mxPoint x="600" y="200" as="targetPoint" />
          </mxGeometry>
        </mxCell>
        <mxCell id="Vx_XcLM9D_9K_0JDuTZA-15" value="&lt;font style=&quot;font-size: 18px;&quot; face=&quot;Times New Roman&quot;&gt;Begin&lt;/font&gt;" style="rounded=1;whiteSpace=wrap;html=1;fillColor=none;" parent="1" vertex="1">
          <mxGeometry x="560" y="120" width="80" height="40" as="geometry" />
        </mxCell>
        <mxCell id="EJ5sKNLR0KxjE8mnvXL1-1" style="edgeStyle=orthogonalEdgeStyle;rounded=0;orthogonalLoop=1;jettySize=auto;html=1;exitX=0;exitY=0.5;exitDx=0;exitDy=0;entryX=0.5;entryY=0;entryDx=0;entryDy=0;" edge="1" parent="1" source="Vx_XcLM9D_9K_0JDuTZA-18" target="Vx_XcLM9D_9K_0JDuTZA-21">
          <mxGeometry relative="1" as="geometry" />
        </mxCell>
        <mxCell id="Vx_XcLM9D_9K_0JDuTZA-18" value="&lt;b&gt;&lt;font style=&quot;font-size: 16px;&quot;&gt;WinMain()&lt;/font&gt;&lt;/b&gt;" style="rounded=0;whiteSpace=wrap;html=1;fillColor=none;" parent="1" vertex="1">
          <mxGeometry x="560" y="200" width="80" height="40" as="geometry" />
        </mxCell>
        <mxCell id="Vx_XcLM9D_9K_0JDuTZA-19" value="位于acllib.c" style="text;html=1;strokeColor=none;fillColor=none;align=center;verticalAlign=middle;whiteSpace=wrap;rounded=0;" parent="1" vertex="1">
          <mxGeometry x="640" y="205" width="60" height="30" as="geometry" />
        </mxCell>
        <mxCell id="b8o53QW4tn2VB0qnrKb_-6" style="edgeStyle=orthogonalEdgeStyle;rounded=0;orthogonalLoop=1;jettySize=auto;html=1;exitX=1;exitY=0.5;exitDx=0;exitDy=0;" parent="1" source="Vx_XcLM9D_9K_0JDuTZA-21" edge="1">
          <mxGeometry relative="1" as="geometry">
            <mxPoint x="520" y="297.3333740234375" as="targetPoint" />
          </mxGeometry>
        </mxCell>
        <mxCell id="Vx_XcLM9D_9K_0JDuTZA-21" value="&lt;span style=&quot;font-size: 18px;&quot;&gt;&lt;b&gt;Setup()&lt;/b&gt;&lt;/span&gt;" style="rounded=0;whiteSpace=wrap;html=1;fillColor=none;" parent="1" vertex="1">
          <mxGeometry x="280" y="278" width="80" height="40" as="geometry" />
        </mxCell>
        <mxCell id="Vx_XcLM9D_9K_0JDuTZA-25" style="edgeStyle=orthogonalEdgeStyle;rounded=0;orthogonalLoop=1;jettySize=auto;html=1;exitX=0.5;exitY=1;exitDx=0;exitDy=0;entryX=0.5;entryY=0;entryDx=0;entryDy=0;" parent="1" source="Vx_XcLM9D_9K_0JDuTZA-23" target="Vx_XcLM9D_9K_0JDuTZA-26" edge="1">
          <mxGeometry relative="1" as="geometry">
            <mxPoint x="520" y="360" as="targetPoint" />
          </mxGeometry>
        </mxCell>
        <mxCell id="Vx_XcLM9D_9K_0JDuTZA-23" value="&lt;font style=&quot;border-color: var(--border-color); font-size: 12px;&quot;&gt;&lt;span style=&quot;&quot;&gt;&lt;b&gt;initGraph()&lt;br&gt;initConsole()&lt;/b&gt;&lt;/span&gt;&lt;br&gt;&lt;/font&gt;&lt;span style=&quot;border-color: var(--border-color);&quot;&gt;&lt;/span&gt;" style="rounded=0;whiteSpace=wrap;html=1;fillColor=none;" parent="1" vertex="1">
          <mxGeometry x="520" y="275" width="80" height="40" as="geometry" />
        </mxCell>
        <mxCell id="b8o53QW4tn2VB0qnrKb_-3" style="edgeStyle=orthogonalEdgeStyle;rounded=0;orthogonalLoop=1;jettySize=auto;html=1;exitX=0;exitY=0.5;exitDx=0;exitDy=0;entryX=0.5;entryY=0;entryDx=0;entryDy=0;" parent="1" source="Vx_XcLM9D_9K_0JDuTZA-26" target="b8o53QW4tn2VB0qnrKb_-2" edge="1">
          <mxGeometry relative="1" as="geometry" />
        </mxCell>
        <mxCell id="EJ5sKNLR0KxjE8mnvXL1-6" style="edgeStyle=orthogonalEdgeStyle;rounded=0;orthogonalLoop=1;jettySize=auto;html=1;exitX=0.75;exitY=1;exitDx=0;exitDy=0;entryX=0.5;entryY=0;entryDx=0;entryDy=0;" edge="1" parent="1" source="Vx_XcLM9D_9K_0JDuTZA-26" target="EJ5sKNLR0KxjE8mnvXL1-5">
          <mxGeometry relative="1" as="geometry" />
        </mxCell>
        <mxCell id="Vx_XcLM9D_9K_0JDuTZA-26" value="&lt;b style=&quot;border-color: var(--border-color);&quot;&gt;&lt;font style=&quot;border-color: var(--border-color); font-size: 18px;&quot;&gt;Message loop&lt;/font&gt;&lt;/b&gt;" style="rounded=0;whiteSpace=wrap;html=1;fillColor=none;" parent="1" vertex="1">
          <mxGeometry x="520" y="360" width="80" height="40" as="geometry" />
        </mxCell>
        <mxCell id="Vx_XcLM9D_9K_0JDuTZA-27" value="消息循环&lt;br&gt;始终运行" style="text;html=1;strokeColor=none;fillColor=none;align=center;verticalAlign=middle;whiteSpace=wrap;rounded=0;" parent="1" vertex="1">
          <mxGeometry x="600" y="365" width="60" height="30" as="geometry" />
        </mxCell>
        <mxCell id="Vx_XcLM9D_9K_0JDuTZA-28" value="" style="endArrow=none;dashed=1;html=1;dashPattern=1 3;strokeWidth=2;rounded=0;entryX=0.401;entryY=0.001;entryDx=0;entryDy=0;entryPerimeter=0;exitX=0.397;exitY=1.001;exitDx=0;exitDy=0;exitPerimeter=0;" parent="1" source="Vx_XcLM9D_9K_0JDuTZA-32" target="Vx_XcLM9D_9K_0JDuTZA-32" edge="1">
          <mxGeometry width="50" height="50" relative="1" as="geometry">
            <mxPoint x="430" y="460" as="sourcePoint" />
            <mxPoint x="430" y="120" as="targetPoint" />
          </mxGeometry>
        </mxCell>
        <mxCell id="Vx_XcLM9D_9K_0JDuTZA-33" value="Main.c" style="text;strokeColor=none;fillColor=none;html=1;fontSize=24;fontStyle=1;verticalAlign=middle;align=center;" parent="1" vertex="1">
          <mxGeometry x="290" y="480" width="100" height="40" as="geometry" />
        </mxCell>
        <mxCell id="Vx_XcLM9D_9K_0JDuTZA-34" value="Acllib.c" style="text;strokeColor=none;fillColor=none;html=1;fontSize=24;fontStyle=1;verticalAlign=middle;align=center;" parent="1" vertex="1">
          <mxGeometry x="520" y="480" width="100" height="40" as="geometry" />
        </mxCell>
        <mxCell id="b8o53QW4tn2VB0qnrKb_-1" value="Main.c" style="text;strokeColor=none;fillColor=none;html=1;fontSize=24;fontStyle=1;verticalAlign=middle;align=center;" parent="1" vertex="1">
          <mxGeometry x="70" y="480" width="100" height="40" as="geometry" />
        </mxCell>
        <mxCell id="b8o53QW4tn2VB0qnrKb_-4" style="edgeStyle=orthogonalEdgeStyle;rounded=0;orthogonalLoop=1;jettySize=auto;html=1;exitX=1;exitY=0.5;exitDx=0;exitDy=0;" parent="1" source="b8o53QW4tn2VB0qnrKb_-2" edge="1">
          <mxGeometry relative="1" as="geometry">
            <mxPoint x="540" y="400" as="targetPoint" />
            <Array as="points">
              <mxPoint x="540" y="440" />
              <mxPoint x="540" y="400" />
            </Array>
          </mxGeometry>
        </mxCell>
        <mxCell id="b8o53QW4tn2VB0qnrKb_-2" value="&lt;b&gt;mouse&lt;br&gt;Listener()...&lt;/b&gt;" style="rounded=0;whiteSpace=wrap;html=1;fillColor=none;" parent="1" vertex="1">
          <mxGeometry x="280" y="420" width="80" height="40" as="geometry" />
        </mxCell>
        <mxCell id="EJ5sKNLR0KxjE8mnvXL1-4" value="&lt;font style=&quot;font-size: 18px;&quot; face=&quot;Times New Roman&quot;&gt;End&lt;/font&gt;" style="rounded=1;whiteSpace=wrap;html=1;fillColor=none;" vertex="1" parent="1">
          <mxGeometry x="80" y="440" width="80" height="40" as="geometry" />
        </mxCell>
        <mxCell id="EJ5sKNLR0KxjE8mnvXL1-5" value="&lt;font style=&quot;font-size: 18px;&quot; face=&quot;Times New Roman&quot;&gt;End&lt;/font&gt;" style="rounded=1;whiteSpace=wrap;html=1;fillColor=none;" vertex="1" parent="1">
          <mxGeometry x="550" y="440" width="80" height="40" as="geometry" />
        </mxCell>
      </root>
    </mxGraphModel>
  </diagram>
</mxfile>
